<?xml version="1.0" encoding="iso-8859-1"?>
<!-- Generator: Adobe Illustrator 16.0.0, SVG Export Plug-In . SVG Version: 6.00 Build 0)  -->
<!DOCTYPE svg PUBLIC "-//W3C//DTD SVG 1.1//EN" "http://www.w3.org/Graphics/SVG/1.1/DTD/svg11.dtd">
<svg version="1.1" id="Capa_1" xmlns="http://www.w3.org/2000/svg" xmlns:xlink="http://www.w3.org/1999/xlink" x="0px" y="0px"
	 width="139.974px" height="139.974px" viewBox="0 0 139.974 139.974" style="enable-background:new 0 0 139.974 139.974;"
	 xml:space="preserve">
<g>
	<g>
		<path id="path4158" d="M106.972,46.716c0-2.149-1.743-2.92-3.896-2.92h-9.731c-3.225,0-5.839,1.308-5.839,2.92
			s2.614,2.92,5.839,2.92h9.731C105.229,49.636,106.972,48.867,106.972,46.716"/>
		<path id="path4160" d="M61.227,102.988v27.252c0,5.374,3.385,9.733,8.76,9.733c5.374,0,8.759-4.359,8.759-9.733v-27.252
			c0-5.375-3.385-9.731-8.759-9.731C64.612,93.257,61.227,97.613,61.227,102.988"/>
		<path id="path4162" d="M89.741,121.168c3.69-2.828,6.523-7.29,6.523-12.341V69.898c0-5.369-2.979-10.09-7.258-12.881
			c-2.701-1.763-6.702,0.061-9.296,1.971c-2.666,1.959-5.979,3.123-9.48,3.123c-3.527,0-7.008-1.182-9.79-3.167
			c-2.624-1.875-6.644-3.687-9.353-1.938c-4.326,2.789-7.377,7.514-7.377,12.892v38.929c0,5.051,2.833,9.51,6.528,12.341
			c2.561,1.962,5.151,0.066,5.151-3.159v-15.265c0-7.523,7.075-13.627,14.599-13.627c7.53,0,14.599,6.104,14.599,13.627v15.265
			C84.585,121.234,87.181,123.13,89.741,121.168"/>
		<path id="path4164" d="M79.717,0H60.255c-8.601,0-16.547,6.798-16.547,15.395v16.722c0,3.226,1.311,5.84,2.92,5.84
			c1.614,0,2.92-2.614,2.92-5.84V15.395c0-6.449,4.255-12.475,10.707-12.475h19.462c6.456,0,10.708,6.026,10.708,12.475v16.722
			c0,3.226,1.309,5.84,2.919,5.84c1.615,0,2.92-2.614,2.92-5.84V15.395C96.264,6.798,88.322,0,79.717,0"/>
		<path id="path4166" d="M62.199,46.541c0-4.3,3.49-7.788,7.788-7.788c4.302,0,7.787,3.488,7.787,7.788
			c0,4.301-3.485,7.786-7.787,7.786C65.689,54.328,62.199,50.844,62.199,46.541z M83.614,46.541c0-7.527-6.1-13.627-13.627-13.627
			c-7.524,0-13.627,6.1-13.627,13.627c0,7.524,6.103,13.625,13.627,13.625C77.514,60.168,83.614,54.065,83.614,46.541"/>
		<path id="path4168" d="M52.468,46.716c0-1.612-2.614-2.92-5.839-2.92h-9.731c-2.153,0-3.896,0.771-3.896,2.92
			c0,2.151,1.743,2.92,3.896,2.92h9.731C49.854,49.636,52.468,48.328,52.468,46.716"/>
	</g>
</g>
<g>
</g>
<g>
</g>
<g>
</g>
<g>
</g>
<g>
</g>
<g>
</g>
<g>
</g>
<g>
</g>
<g>
</g>
<g>
</g>
<g>
</g>
<g>
</g>
<g>
</g>
<g>
</g>
<g>
</g>
</svg>
