<?xml version="1.0" encoding="iso-8859-1"?>
<!-- Generator: Adobe Illustrator 16.0.0, SVG Export Plug-In . SVG Version: 6.00 Build 0)  -->
<!DOCTYPE svg PUBLIC "-//W3C//DTD SVG 1.1//EN" "http://www.w3.org/Graphics/SVG/1.1/DTD/svg11.dtd">
<svg version="1.1" id="Capa_1" xmlns="http://www.w3.org/2000/svg" xmlns:xlink="http://www.w3.org/1999/xlink" x="0px" y="0px"
	 width="118.592px" height="118.592px" viewBox="0 0 118.592 118.592" style="enable-background:new 0 0 118.592 118.592;"
	 xml:space="preserve">
<g>
	<g>
		<path d="M20.9,60.793l-0.917-5.241l4.626-0.444l0.196-0.019c0.44-0.043,0.868-0.237,1.199-0.582l7.358-7.641
			c0.597-0.624,0.641-1.618,0.067-2.289c-0.611-0.715-1.687-0.799-2.402-0.188l-7.374,6.304l-8.3,0.131
			c-0.615-0.104-1.256-0.113-1.905,0c-1.221,0.214-2.274,0.81-3.072,1.639c-0.183,0.107-0.358,0.229-0.516,0.385l-5.364,5.293
			l-0.173,0.17c-0.081,0.081-0.152,0.175-0.211,0.279c-0.698,1.244-1.378,2.479-2.053,3.734c-0.336,0.629-0.669,1.26-0.997,1.905
			c-0.164,0.325-0.327,0.651-0.491,0.998c-0.083,0.174-0.164,0.351-0.25,0.551c-0.043,0.101-0.087,0.209-0.139,0.347
			c-0.026,0.072-0.054,0.145-0.09,0.271l-0.027,0.098l-0.034,0.159l-0.017,0.118c-0.006,0.053-0.01,0.107-0.013,0.161L0,67.014
			c0,0.048,0.005,0.128,0.013,0.191c0.016,0.135,0.047,0.271,0.09,0.396c0.315,0.886,1.288,1.349,2.174,1.034
			c0.561-0.199,0.95-0.664,1.082-1.201c0-0.001,0,0,0.001-0.001l0.079-0.134l0.236-0.381c0.172-0.271,0.358-0.553,0.548-0.832
			c0.382-0.563,0.778-1.131,1.179-1.697c0.72-1.016,1.459-2.034,2.199-3.039l1.736-1.407l0.385,2.194
			c-0.054,0.037-0.089,0.061-0.089,0.061l-2.985,17.01c0,0,1.834,0.104,4.554,0.223L6.42,88.258
			c-0.438,0.816-0.208,1.856,0.573,2.396c0.838,0.581,1.987,0.372,2.568-0.467l6.713-9.696c0.172-0.247,0.287-0.542,0.334-0.856
			c1.989,0.063,4.092,0.113,6.123,0.136l1.118,1.435l-0.481,7.987c-0.057,0.922,0.586,1.763,1.519,1.929
			c1.004,0.18,1.963-0.488,2.144-1.492l1.592-8.897c0.059-0.329,0.027-0.673-0.082-1.001c3.633-0.119,6.062-0.452,5.45-1.17
			C32.184,76.44,22.902,65.84,20.9,60.793z M3.399,67.191l-0.013,0.085c-0.002,0.017-0.007,0.031-0.009,0.048
			c0.008-0.049,0.018-0.098,0.022-0.146C3.399,67.183,3.399,67.188,3.399,67.191z M3.408,67.062
			c-0.001,0.011-0.002,0.021-0.003,0.029c0.003-0.094,0.001-0.188-0.012-0.283c0,0.005,0.003,0.01,0.004,0.015
			C3.404,66.881,3.408,66.957,3.408,67V67.062z"/>
		<polygon points="31.584,28.941 26.746,31.345 23.859,27.441 22.567,31.326 18.18,29.396 20.825,36.438 21.379,36.23 
			19.228,30.503 22.923,32.129 24.06,28.709 26.566,32.095 30.029,30.374 27.175,35.111 32.502,35.209 28.206,38.175 30.865,41.584 
			26.129,42.191 26.205,42.778 31.971,42.04 29.059,38.305 34.353,34.651 28.211,34.539 		"/>
		<path d="M5.149,50.048c0.131,0.135,0.276,0.249,0.432,0.357c0.311,0.211,0.67,0.371,1.096,0.446
			c0.422,0.077,0.93,0.038,1.429-0.176c0.495-0.216,0.922-0.613,1.19-1.022c0.278-0.412,0.449-0.826,0.578-1.216
			c0.128-0.391,0.205-0.766,0.266-1.127c0.002-0.012,0.003-0.022,0.004-0.034c1.387,2.153,4.038,3.293,6.654,2.635
			c3.279-0.826,5.275-4.166,4.45-7.446c-0.557-2.207-2.253-3.829-4.302-4.404c-2.065-0.772-4.482-0.315-6.123,1.363
			c-0.068,0.07-0.135,0.143-0.2,0.216c-0.12-0.432-0.348-0.755-0.708-0.987c-0.224-0.139-0.519-0.239-0.87-0.232
			c-0.351,0.004-0.764,0.136-1.088,0.374C7.628,39.03,7.408,39.334,7.253,39.6c-0.157,0.272-0.254,0.518-0.33,0.75
			c-0.146,0.462-0.209,0.858-0.252,1.233c-0.078,0.745-0.068,1.406-0.036,2.042c0.036,0.634,0.104,1.236,0.171,1.813
			c0.07,0.577,0.135,1.131,0.168,1.637c0.029,0.5,0.002,0.962-0.063,1.207c-0.033,0.126-0.036,0.196-0.068,0.298
			c-0.031,0.104-0.134,0.229-0.322,0.354c-0.189,0.122-0.447,0.232-0.743,0.337c-0.147,0.056-0.305,0.104-0.47,0.161
			c-0.084,0.03-0.167,0.057-0.252,0.084c-0.089,0.035-0.18,0.058-0.271,0.097c0.055,0.084,0.111,0.155,0.171,0.231
			C5.018,49.912,5.082,49.982,5.149,50.048z M13.354,41.479c2.435,1.592,4.77-1.077,5.414-1.912c0.94,0.74,1.655,1.78,1.97,3.027
			c0.341,1.354,0.152,2.717-0.431,3.877c-0.248-0.605-1.272-0.789-2.312-0.404c-1.054,0.39-1.72,1.212-1.488,1.838
			c0.229,0.617,1.246,0.809,2.285,0.438c-0.606,0.486-1.321,0.856-2.123,1.059c-2.177,0.548-4.377-0.267-5.712-1.898
			C11.353,47.062,14.675,43.246,13.354,41.479z"/>
		<path d="M105.527,61.045c-1.112,0-2.187,0.154-3.217,0.416l-0.381-0.699c0.521,0.107,1.079,0.119,1.637,0.013l-1.584-8.18
			c-1.459,0.283-2.582,1.3-3.08,2.59c0,0-2.6-1.5-4.642-5.357c-1.33-2.512-1.487-0.999-1.683,0.412l1.498,0.54
			c0.67,0.242,1.205,0.729,1.508,1.372c0.302,0.644,0.336,1.366,0.095,2.035c-0.38,1.053-1.386,1.76-2.505,1.76
			c-0.173,0-0.348-0.018-0.518-0.051l-2.414-0.479h-2.436L85.5,56.819c0.236,0.166,0.473,0.332,0.697,0.506
			c0.52,0.397,1.013,0.825,1.467,1.269c0.453,0.432,0.912,0.936,1.361,1.492c0.433,0.537,0.824,1.104,1.172,1.685
			c0.371,0.631,0.666,1.211,0.898,1.776c0.23,0.537,0.438,1.123,0.605,1.731c0.154,0.533,0.25,1.026,0.351,1.571l0.042,0.297
			c0.047,0.336,0.087,0.652,0.107,0.957l4.688-6.445L97.9,63.52c-3.293,2.375-5.444,6.232-5.444,10.594
			c0,7.206,5.862,13.068,13.069,13.068c7.205,0,13.066-5.862,13.066-13.068S112.734,61.045,105.527,61.045z M105.527,82.897
			c-4.846,0-8.785-3.938-8.785-8.783c0-2.735,1.258-5.183,3.225-6.795l2.01,3.694c0.439,0.811,1.273,1.269,2.135,1.269
			c0.39,0,0.787-0.094,1.156-0.294c1.178-0.641,1.615-2.115,0.973-3.293l-1.787-3.292c0.354-0.043,0.71-0.073,1.074-0.073
			c4.842,0,8.783,3.94,8.783,8.784C114.311,78.959,110.369,82.897,105.527,82.897z"/>
		<path d="M86.645,70.408l-0.099-0.793c-0.011-0.128-0.035-0.232-0.06-0.352c-0.021-0.1-0.041-0.204-0.061-0.315
			c-0.027-0.161-0.076-0.334-0.127-0.519c-0.023-0.088-0.049-0.178-0.072-0.27l-0.027-0.08c-0.09-0.269-0.182-0.543-0.299-0.809
			c-0.151-0.354-0.306-0.656-0.476-0.938c-0.167-0.289-0.364-0.578-0.633-0.922c-0.229-0.287-0.488-0.57-0.767-0.834
			c-0.961-0.924-2.36-1.768-3.754-2.261c-0.466-0.172-0.938-0.313-1.408-0.419c-0.133-0.029-0.239-0.051-0.308-0.062l-0.159-0.021
			c-0.14-0.031-0.277-0.07-0.432-0.127c-0.532-0.059-1.075-0.189-1.602-0.389c0.312,0.547,0.554,1.045,0.74,1.525
			c0.238,0.592,0.432,1.219,0.57,1.854c0.139,0.6,0.201,1.16,0.255,1.656l0.021,0.401c0.021,0.362,0.037,0.707,0.02,1.033
			c-0.005,0.108-0.008,0.223-0.012,0.329c-0.008,0.258-0.016,0.5-0.049,0.725l-0.09,0.822c-0.17,1.527-1.543,2.658-3.107,2.484
			c-1.396-0.156-2.471-1.33-2.501-2.732l-0.019-0.807c0.002-0.131-0.012-0.23-0.022-0.34c-0.011-0.101-0.022-0.205-0.03-0.315
			c-0.008-0.132-0.035-0.277-0.068-0.446c-0.019-0.102-0.039-0.206-0.056-0.314l-0.028-0.108c-0.062-0.241-0.127-0.49-0.217-0.72
			c-0.113-0.311-0.246-0.594-0.398-0.858c-0.165-0.3-0.379-0.581-0.566-0.817c-0.203-0.227-0.436-0.478-0.699-0.69
			c-0.51-0.437-1.143-0.825-1.846-1.142c-0.561-0.258-1.195-0.474-1.949-0.662c-0.597-0.145-1.113-0.221-1.441-0.258
			c-0.141-0.016-0.26-0.027-0.327-0.029l-0.021,0.002l-0.052-0.002c-0.417-0.018-0.802-0.09-1.17-0.219
			c-0.642-0.082-1.31-0.271-1.944-0.562c-0.379-0.037-0.76-0.062-1.146-0.062c-7.207,0-13.069,5.861-13.069,13.067
			S53.003,87.18,60.21,87.18c7.069,0,12.832-5.646,13.047-12.664h13.044c0.777,0,1.508-0.37,1.964-0.998l0.528-0.727
			C87.671,72.526,86.79,71.592,86.645,70.408z M60.211,82.897c-4.846,0-8.785-3.938-8.785-8.783c0-4.563,3.502-8.325,7.96-8.743
			l-3.188,5.502c-0.434,0.752-0.437,1.678-0.004,2.43c0.435,0.754,1.238,1.217,2.104,1.217h10.675
			C68.76,79.174,64.917,82.897,60.211,82.897z"/>
		<circle cx="61.178" cy="35.198" r="5.303"/>
		<circle cx="82.693" cy="35.198" r="5.303"/>
		<path d="M91.503,67.228c-0.087-0.468-0.183-0.976-0.336-1.509c-0.147-0.53-0.337-1.088-0.577-1.647
			c-0.232-0.563-0.523-1.127-0.852-1.681c-0.33-0.553-0.703-1.09-1.111-1.6c-0.408-0.506-0.846-0.988-1.303-1.428
			c-0.455-0.444-0.93-0.849-1.404-1.214c-0.749-0.578-1.496-1.058-2.193-1.45c0.08-0.644,0.072-1.313-0.035-1.984
			c-0.125-0.769-0.209-1.552-0.271-2.332l0.756,0.779l0.205,0.211c0.263,0.271,0.606,0.466,1.003,0.545l7.584,1.502
			c0.92,0.183,1.862-0.328,2.189-1.238c0.361-1.002-0.158-2.107-1.16-2.469l-6.428-2.316l-3.836-4.791
			c-0.97-4.733-8.693-6.096-10.02-0.441c-0.307,1.312-0.496,2.606-0.591,3.896c-1.427-0.412-2.843-1.117-3.849-2.085
			c0.313-4.52-5.121-6.838-8.225-4.72c-3.05,1.262-7.205,5.576-10.073,3.272c-1.093-0.876-2.393-1.659-3.29-0.997
			c-1.051-0.693-2.483-0.506-3.315,0.48l-1.271,1.511c-0.822-0.322-1.788-0.107-2.389,0.604l-4.066,4.07
			c-0.752,0.894-0.64,2.227,0.256,2.979l6.138,5.171c0.892,0.752,2.227,0.638,2.979-0.255l3.318-4.699
			c0.602-0.712,0.649-1.703,0.191-2.457l1.272-1.51c0.113-0.136,0.212-0.28,0.29-0.431c1.302,0.352,2.684,0.379,4.226,0.071
			c1.15-0.229,2.221-0.693,3.27-1.216c-0.263,3.196,0.052,6.351,0.575,9.614c0.341,2.125,2.409,3.5,4.477,3.734
			c0.311,0.115,0.645,0.188,0.993,0.2c0,0,0.013,0.001,0.036,0.002c0.007-0.001,0.01-0.004,0.061,0
			c0.077,0.002,0.217,0.017,0.396,0.034c0.36,0.042,0.899,0.121,1.532,0.275c0.631,0.157,1.361,0.377,2.072,0.703
			c0.715,0.32,1.416,0.735,2.008,1.239c0.304,0.246,0.562,0.524,0.812,0.806c0.23,0.293,0.451,0.592,0.626,0.907
			c0.181,0.313,0.329,0.636,0.444,0.958c0.127,0.318,0.203,0.645,0.283,0.945c0.047,0.312,0.121,0.594,0.138,0.859
			c0.018,0.267,0.06,0.492,0.054,0.69c0.01,0.394,0.014,0.617,0.014,0.617l0.006,0.188c0.021,1.026,0.802,1.903,1.85,2.021
			c1.143,0.127,2.17-0.695,2.297-1.837c0,0,0.035-0.309,0.096-0.846c0.037-0.269,0.034-0.606,0.053-0.992
			c0.021-0.383-0.018-0.828-0.036-1.312c-0.054-0.486-0.112-1.018-0.242-1.578c-0.123-0.562-0.299-1.152-0.538-1.746
			c-0.232-0.598-0.543-1.188-0.895-1.769c-0.367-0.563-0.771-1.125-1.23-1.623c-0.906-1.018-1.965-1.843-2.998-2.485
			c-0.779-0.49-1.546-0.872-2.256-1.179c0.031-0.514,0.012-1.038-0.073-1.566c-0.163-1.015-0.278-2.057-0.329-3.08
			c1.383,0.736,2.887,1.266,4.363,1.557c0.12,1.412,0.311,2.833,0.542,4.273c0.345,2.161,2.481,3.551,4.585,3.749
			c0.139,0.051,0.279,0.098,0.426,0.131c-0.008-0.002,0.033,0.006,0.031,0.004c0.002-0.002,0.01-0.002,0.057,0.006
			c0.075,0.012,0.209,0.035,0.383,0.074c0.351,0.08,0.877,0.217,1.492,0.442c1.232,0.438,2.803,1.259,4.01,2.421
			c0.305,0.287,0.586,0.594,0.841,0.916c0.252,0.321,0.487,0.65,0.682,0.991c0.203,0.336,0.372,0.681,0.519,1.017
			c0.148,0.336,0.256,0.67,0.359,0.979c0.081,0.317,0.174,0.606,0.219,0.875c0.047,0.269,0.108,0.499,0.125,0.698
			c0.049,0.396,0.078,0.623,0.078,0.623l0.021,0.17c0.126,1.021,0.991,1.814,2.048,1.824c1.148,0.01,2.089-0.914,2.1-2.062
			c0,0,0.002-0.307,0.008-0.844c0.009-0.268-0.025-0.598-0.043-0.977C91.633,68.125,91.566,67.696,91.503,67.228z M50.182,48.901
			l-1.199,1.423l-5.185-4.365l1.2-1.424c0.523-0.623,1.401-0.773,2.096-0.413c-0.65,0.866-0.734,1.561,0.373,2.451
			c0.93,0.745,1.863,1.79,2.828,2.161C50.26,48.792,50.229,48.85,50.182,48.901z"/>
	</g>
</g>
<g>
</g>
<g>
</g>
<g>
</g>
<g>
</g>
<g>
</g>
<g>
</g>
<g>
</g>
<g>
</g>
<g>
</g>
<g>
</g>
<g>
</g>
<g>
</g>
<g>
</g>
<g>
</g>
<g>
</g>
</svg>
