<?xml version="1.0" encoding="iso-8859-1"?>
<!-- Generator: Adobe Illustrator 18.1.1, SVG Export Plug-In . SVG Version: 6.00 Build 0)  -->
<svg version="1.1" id="Capa_1" xmlns="http://www.w3.org/2000/svg" xmlns:xlink="http://www.w3.org/1999/xlink" x="0px" y="0px"
	 viewBox="0 0 47.998 47.998" style="enable-background:new 0 0 47.998 47.998;" xml:space="preserve">
<g>
	<path d="M40.015,23.198c-3.342,0-6.096,2.474-6.549,5.693h-0.061l-2.434-4.496l17.027-8.821l-10.651-1.228l-1.021,3.073
		l-8.441,1.252l-2.006-3.71l-12.187,2.355l2.171-5.756L4.978,22.437h5.104L9.27,23.753c-0.812-0.357-1.708-0.556-2.651-0.556
		C2.964,23.198,0,26.161,0,29.818c0,3.654,2.964,6.619,6.619,6.619c3.656,0,6.62-2.965,6.62-6.619c0-2.053-0.938-3.885-2.399-5.1
		l0.699-1.136L14.4,31.45h4.196v1.543l0.396-0.119c0.711-0.219,2.322-0.521,2.767-0.078l0.438-0.434
		c-0.651-0.652-2.229-0.369-2.982-0.184V31.45h12.807h1.586c0.729,2.862,3.312,4.983,6.404,4.983c3.656,0,6.621-2.965,6.621-6.619
		C46.636,26.163,43.671,23.198,40.015,23.198z M6.621,33.977c-2.295,0-4.161-1.865-4.161-4.16s1.866-4.162,4.161-4.162
		c0.47,0,0.919,0.082,1.341,0.229l-2.125,3.45l1.57,0.967l2.125-3.455c0.771,0.758,1.251,1.811,1.251,2.971
		C10.785,32.112,8.915,33.977,6.621,33.977z M10.365,21.205H7.947l4.837-4.837L10.365,21.205z M40.015,33.979
		c-1.715,0-3.188-1.043-3.824-2.529h5.051v-2.559h-5.277c0.424-1.852,2.08-3.234,4.057-3.234c2.297,0,4.16,1.865,4.16,4.162
		C44.177,32.114,42.311,33.979,40.015,33.979z"/>
</g>
<g>
</g>
<g>
</g>
<g>
</g>
<g>
</g>
<g>
</g>
<g>
</g>
<g>
</g>
<g>
</g>
<g>
</g>
<g>
</g>
<g>
</g>
<g>
</g>
<g>
</g>
<g>
</g>
<g>
</g>
</svg>
